# xmcd CD database file
#
# Track frame offsets:
#        150
#        17694
#        36929
#        53608
#        69438
#        84197
#        96510
#        114550
#        131496
#        148220
#        163998
#        178845
#        192619
#
# Disc length: 2702 seconds
#
# Revision: 0
# Processed by: cddbd v1.5.2PL0 Copyright (c) Steve Scherf et al.
# Submitted via: CUERipper 2.1.6
#
DISCID=bb0a8c0d
DTITLE=The Curimakers - Split In Two
DYEAR=2011
DGENRE=Soul Funk
TTITLE0=All I Want (Is In You)
TTITLE1=Blind Eyes Open
TTITLE2=I Will Hold On
TTITLE3=Be There (To Love You)
TTITLE4=Confusing
TTITLE5=Contemplation
TTITLE6=Split In Two
TTITLE7=Mister Soul
TTITLE8=Over Heels
TTITLE9=About Rainbows
TTITLE10=Much More Than Hate
TTITLE11=The Man Without A Shadow
TTITLE12=I Was Drunk
EXTD=
EXTT0=
EXTT1=
EXTT2=
EXTT3=
EXTT4=
EXTT5=
EXTT6=
EXTT7=
EXTT8=
EXTT9=
EXTT10=
EXTT11=
EXTT12=
PLAYORDER=
